<?xml version="1.0" standalone="no"?>
<!DOCTYPE svg PUBLIC "-//W3C//DTD SVG 20010904//EN"
 "http://www.w3.org/TR/2001/REC-SVG-20010904/DTD/svg10.dtd">
<svg version="1.0" xmlns="http://www.w3.org/2000/svg"
 width="920.000000pt" height="920.000000pt" viewBox="0 0 920.000000 920.000000"
 preserveAspectRatio="xMidYMid meet">
<metadata>
Created by potrace 1.14, written by Peter Selinger 2001-2017
</metadata>
<g transform="translate(0.000000,920.000000) scale(0.100000,-0.100000)"
fill="#000000" stroke="none">
<path d="M3654 8853 c-4 -16 -14 -38 -22 -51 -8 -12 -12 -25 -8 -29 3 -3 2
-11 -2 -17 -5 -6 -16 -33 -26 -61 -10 -27 -22 -59 -27 -70 -4 -11 -29 -78 -54
-150 -26 -71 -50 -139 -55 -150 -4 -11 -25 -67 -46 -125 -20 -58 -42 -111 -47
-117 -5 -7 -7 -13 -3 -13 3 0 -4 -24 -15 -52 -12 -29 -22 -57 -24 -63 -2 -11
-12 -39 -25 -70 -18 -46 -35 -91 -36 -100 -1 -5 -10 -28 -19 -50 -10 -22 -19
-46 -21 -54 -1 -7 -11 -36 -22 -65 -44 -114 -83 -222 -87 -236 -2 -8 -9 -28
-16 -45 -6 -16 -13 -34 -15 -40 -1 -5 -17 -46 -34 -90 -17 -44 -33 -89 -35
-100 -3 -11 -9 -29 -15 -40 -9 -18 -31 -77 -120 -330 -17 -49 -38 -104 -46
-122 -8 -17 -14 -37 -14 -45 0 -8 -4 -18 -8 -24 -5 -5 -15 -29 -22 -54 -8 -25
-20 -56 -27 -69 -6 -14 -10 -28 -7 -33 3 -4 0 -8 -5 -8 -6 0 -10 -3 -9 -7 0
-5 -1 -15 -5 -23 -13 -34 -42 -115 -43 -120 0 -3 -3 -12 -7 -20 -7 -19 -41
-111 -82 -225 -18 -49 -69 -191 -114 -315 -45 -124 -103 -281 -128 -350 -25
-69 -52 -140 -60 -158 -8 -18 -16 -40 -18 -50 -2 -9 -16 -48 -30 -87 -15 -38
-28 -74 -30 -80 -1 -5 -8 -23 -14 -40 -7 -16 -14 -34 -15 -40 -3 -12 -15 -42
-26 -70 -5 -11 -23 -60 -40 -110 -18 -49 -36 -99 -41 -110 -4 -11 -29 -78 -54
-150 -25 -71 -50 -139 -55 -150 -13 -30 -61 -163 -64 -178 -3 -14 -13 -40 -31
-82 -7 -16 -24 -64 -38 -105 -15 -41 -69 -192 -122 -334 -52 -143 -95 -265
-95 -273 0 -7 -4 -13 -8 -13 -5 0 -9 -6 -9 -12 -1 -15 -47 -147 -67 -193 -7
-16 -30 -79 -52 -140 -21 -60 -40 -112 -43 -115 -3 -3 -7 -12 -9 -20 -2 -14
-134 -382 -152 -425 -15 -36 -92 -248 -94 -259 -2 -6 -8 -22 -14 -36 -21 -49
-67 -185 -64 -192 1 -5 -2 -8 -8 -8 -5 0 -10 -7 -10 -15 0 -8 -11 -39 -25 -70
-13 -30 -24 -56 -24 -58 1 -18 -130 -281 -142 -285 -5 -2 -9 -9 -9 -14 0 -17
-102 -149 -157 -203 -68 -67 -155 -130 -227 -164 -78 -37 -204 -72 -267 -74
-27 -1 -49 -4 -49 -7 0 -3 -45 -5 -100 -5 l-100 0 0 -343 0 -342 1597 2 1598
3 0 333 c0 184 -2 337 -5 340 -3 4 -142 7 -310 8 -311 1 -366 4 -433 24 -96
29 -195 108 -238 192 -53 104 -59 299 -14 508 3 14 7 34 9 45 2 11 9 40 16 65
7 25 14 52 15 60 2 8 17 58 34 110 17 52 34 111 37 130 4 19 15 54 25 78 10
23 18 45 18 47 0 6 47 157 58 185 4 8 7 17 7 20 3 10 77 235 83 250 4 8 7 17
8 20 1 3 4 12 7 20 3 8 27 80 53 160 26 80 51 150 56 156 6 7 8 18 7 25 -3 12
227 14 1406 14 l1409 0 27 -80 c15 -44 30 -87 33 -95 8 -19 108 -312 111 -325
2 -5 6 -19 10 -30 9 -24 7 -16 63 -175 24 -69 45 -131 45 -137 1 -7 4 -13 8
-13 3 0 7 -10 7 -22 1 -13 6 -32 12 -43 13 -27 24 -58 27 -70 1 -5 3 -13 4
-17 1 -5 3 -11 4 -15 2 -5 7 -19 13 -33 17 -40 68 -174 68 -180 0 -3 3 -9 7
-15 8 -13 44 -149 52 -195 28 -163 26 -379 -5 -416 -6 -8 -8 -14 -5 -14 10 0
-48 -81 -75 -106 -50 -45 -172 -98 -274 -120 -16 -3 -158 -7 -315 -8 l-285 -3
-2 -341 -1 -342 2114 0 2114 0 0 340 c0 187 -3 340 -7 341 -5 1 -62 2 -128 4
-221 5 -347 38 -490 128 -94 59 -241 203 -275 268 -7 13 -16 26 -20 29 -12 9
-84 142 -119 220 -53 120 -69 163 -107 280 -14 41 -29 84 -34 95 -5 11 -16 40
-24 65 -8 25 -31 90 -51 145 -20 55 -42 118 -49 140 -8 22 -35 99 -61 170 -25
72 -48 138 -50 147 -2 9 -8 25 -13 35 -6 10 -10 20 -10 23 0 3 -6 19 -12 35
-7 17 -14 41 -17 55 -2 13 -8 29 -12 35 -5 5 -11 19 -14 30 -6 23 -67 196
-127 365 -23 63 -48 133 -55 155 -7 22 -27 78 -44 125 -18 47 -34 92 -36 100
-2 8 -29 85 -60 170 -30 85 -57 162 -60 170 -2 8 -16 49 -30 90 -15 41 -28 80
-30 85 -1 6 -7 24 -14 40 -13 31 -46 126 -120 340 -23 66 -45 127 -48 135 -3
8 -7 17 -8 20 -1 3 -4 12 -8 20 -3 8 -17 51 -32 95 -14 44 -30 89 -35 100 -18
40 -70 192 -70 203 0 7 -4 20 -9 30 -18 35 -31 69 -61 162 -17 52 -36 104 -41
115 -6 12 -11 27 -13 35 -1 8 -14 47 -28 85 -15 39 -45 124 -68 190 -50 145
-138 393 -157 445 -3 8 -7 20 -9 25 -1 6 -24 69 -49 140 -82 230 -96 270 -99
280 -1 6 -12 37 -25 70 -13 33 -24 67 -26 75 -2 8 -12 39 -24 68 -11 28 -17
52 -13 52 4 0 3 4 -3 8 -5 4 -30 68 -55 142 -25 74 -48 137 -51 140 -3 3 -8
16 -12 30 -3 14 -24 77 -47 140 -22 63 -43 122 -45 130 -12 46 -51 146 -58
151 -5 3 -8 9 -8 13 1 3 1 7 0 9 0 1 -2 12 -4 23 -3 12 -10 34 -16 50 -7 16
-13 34 -15 39 -1 6 -19 55 -38 110 -20 55 -48 134 -62 175 -14 41 -29 84 -35
95 -5 11 -11 30 -14 43 -2 12 -7 27 -10 32 -6 10 -95 257 -98 275 -2 6 -5 15
-8 20 -4 6 -9 22 -13 37 -3 15 -11 40 -18 55 -6 15 -12 30 -13 33 -1 3 -7 18
-13 33 -7 16 -12 31 -12 35 0 4 -14 46 -31 94 l-32 88 -968 0 -969 0 -6 -27z
m450 -1236 c-3 -8 2 -35 11 -61 9 -25 13 -51 10 -56 -3 -6 -1 -10 6 -10 7 0
10 -3 7 -6 -3 -3 -2 -21 4 -41 5 -19 12 -44 14 -54 2 -11 6 -27 8 -36 8 -34
78 -308 92 -363 8 -30 16 -59 18 -65 1 -5 5 -19 9 -30 3 -11 8 -31 11 -45 5
-27 54 -205 64 -230 6 -18 9 -29 16 -55 2 -11 17 -58 31 -105 14 -47 28 -92
30 -100 2 -8 13 -46 25 -85 11 -38 23 -81 26 -95 3 -13 10 -30 16 -37 6 -7 8
-13 4 -13 -3 0 -1 -12 5 -27 6 -16 13 -38 15 -50 2 -12 9 -35 16 -50 6 -16 11
-31 10 -34 -1 -4 10 -37 24 -75 14 -38 25 -71 25 -74 0 -12 11 -57 19 -75 4
-11 18 -54 30 -95 12 -41 29 -92 36 -112 8 -21 12 -38 9 -38 -3 0 1 -13 10
-30 8 -16 15 -31 14 -32 -3 -4 30 -119 40 -143 8 -17 30 -91 37 -120 1 -5 13
-46 27 -90 14 -44 39 -127 57 -185 17 -58 35 -114 40 -125 5 -11 12 -36 16
-55 3 -19 9 -39 13 -45 3 -5 6 -12 7 -15 0 -3 7 -25 14 -50 7 -25 14 -47 15
-50 8 -27 48 -158 52 -170 7 -18 11 -31 16 -50 14 -54 20 -76 26 -85 3 -5 6
-12 6 -15 1 -3 9 -32 20 -65 10 -33 19 -62 19 -65 1 -5 14 -47 45 -145 10 -33
17 -61 16 -63 -2 -2 -1945 -4 -2257 -2 l-47 0 15 35 c8 19 14 37 14 40 1 6 8
29 17 53 3 9 7 19 7 22 2 7 106 321 113 340 3 8 7 20 9 25 1 6 23 71 49 145
26 74 48 142 50 150 2 8 10 33 18 55 8 22 18 49 23 60 4 11 8 25 9 30 1 6 10
33 20 60 9 28 18 55 19 60 1 6 8 20 14 33 7 12 10 22 6 22 -3 0 -1 7 6 15 7 8
10 15 7 15 -4 0 5 30 20 68 14 37 27 74 28 82 2 8 4 16 5 18 2 1 4 7 5 12 1 6
4 12 5 15 1 3 4 10 5 15 1 6 4 12 5 15 1 3 3 8 4 13 4 16 38 118 46 137 8 19
31 87 36 110 4 13 103 305 111 325 4 8 7 17 8 20 0 3 9 30 20 60 11 30 20 57
20 60 2 13 17 57 25 75 9 20 130 381 134 400 2 10 86 273 113 355 8 25 16 52
18 60 2 8 18 60 35 115 36 114 91 303 95 325 2 8 4 16 5 18 2 1 4 7 5 12 1 6
3 11 5 13 1 1 3 11 5 21 3 17 14 57 20 76 8 24 17 59 20 80 6 40 17 70 26 70
5 0 6 -6 3 -13z"/>
</g>
</svg>
